<svg viewBox="0 0 16 16" fill="none" xmlns="http://www.w3.org/2000/svg" xmlns:xlink="http://www.w3.org/1999/xlink" x="0" y="0"><path id="Vector_15" d="M8,16c0,-1.107 -0.2133,-2.147 -0.64,-3.12c-0.4133,-0.973 -0.98,-1.82 -1.7,-2.54c-0.72,-0.72 -1.5666,-1.287 -2.54,-1.7c-0.9733,-0.427 -2.0133,-0.64 -3.12,-0.64c1.1067,0 2.1467,-0.207 3.12,-0.62c0.9734,-0.427 1.82,-1 2.54,-1.72c0.72,-0.72 1.2867,-1.567 1.7,-2.54c0.4267,-0.973 0.64,-2.013 0.64,-3.12c0,1.107 0.2067,2.147 0.62,3.12c0.4267,0.973 1,1.82 1.72,2.54c0.72,0.72 1.5667,1.293 2.54,1.72c0.9733,0.413 2.0134,0.62 3.12,0.62c-1.1066,0 -2.1467,0.213 -3.12,0.64c-0.9733,0.413 -1.82,0.98 -2.54,1.7c-0.72,0.72 -1.2933,1.567 -1.72,2.54c-0.4133,0.973 -0.62,2.013 -0.62,3.12z" fill="currentColor"/></svg>