<svg viewBox="0 0 10.2857 12" fill="none" xmlns="http://www.w3.org/2000/svg" xmlns:xlink="http://www.w3.org/1999/xlink" x="0" y="0"><path id="Vector_26" fill-rule="evenodd" clip-rule="evenodd" d="M4.835,3.148v-3.015h0.617v3.05l3.696,-3.147v3.507h1.138v5.2h-1.422v3.244l-3.412,-3.063v2.943h-0.617v-3.018l-3.413,3.151v-3.257h-1.422v-5.2h1.422v-3.543zM5.452,8.093l2.795,2.509v-3.186l-2.795,-2.813zM2.039,7.416v3.172l2.796,-2.581v-3.404zM0.617,8.122h0.805v-0.963l2.977,-2.996h-3.782zM8.864,7.159v0.963h0.805v-3.959h-3.781zM2.039,3.543h2.311l-2.311,-2.133zM5.985,3.543h2.547v-2.169z" fill="black"/></svg>