<svg width="650" height="596" viewBox="0 0 650 596" fill="none" xmlns="http://www.w3.org/2000/svg">
<path d="M136.771 0.50016C147.465 0.499721 156.165 9.11239 156.271 19.8058L156.437 36.38C156.549 47.6322 165.711 56.6901 176.964 56.675L629.587 56.0656C640.367 56.0511 649.113 64.786 649.113 75.5656V575.766C649.113 586.535 640.383 595.267 629.613 595.267H20C9.23061 595.267 0.500264 586.536 0.5 575.767V62.6916C0.500183 59.0175 3.47916 56.0392 7.15332 56.0392C11.4099 56.039 14.8486 52.5651 14.8057 48.3088L14.5215 20.2013C14.412 9.35575 23.1734 0.50462 34.0195 0.504066L136.771 0.50016Z" fill="white" stroke="#E9EAEB"/>
</svg>
